<?xml version="1.0" encoding="UTF-8"?>
<!DOCTYPE svg PUBLIC "-//W3C//DTD SVG 1.1//EN" "http://www.w3.org/Graphics/SVG/1.1/DTD/svg11.dtd">
<svg version="1.1" xmlns="http://www.w3.org/2000/svg" xmlns:xlink="http://www.w3.org/1999/xlink" x="0px" y="0px" width="128" height="128" viewBox="0, 0, 128, 128">
  <g id="Background">
    <rect x="0" y="0" width="128" height="128" fill="#000000" fill-opacity="0"/>
  </g>
  <g id="Background">
    <path d="M18.093,6 L109.907,6 C116.561,6 122,11.439 122,18.093 L122,109.905 C122,116.561 116.561,122 109.907,122 L18.093,122 C11.439,122 6,116.561 6,109.905 L6,18.093 C6,11.439 11.439,6 18.093,6" fill="#727272"/>
    <path d="M64,34.141 C74.321,34.141 83.673,38.333 90.433,45.092 L90.429,45.097 C97.197,51.86 101.384,61.213 101.384,71.525 C101.384,81.846 97.202,91.191 90.433,97.954 L90.429,97.954 L90.429,97.959 C83.665,104.727 74.321,108.91 64,108.91 C53.687,108.91 44.335,104.722 37.571,97.954 L37.566,97.959 C30.808,91.2 26.614,81.846 26.614,71.525 C26.614,61.21 30.808,51.851 37.566,45.092 C44.325,38.333 53.682,34.141 64,34.141 z M87.977,47.549 C81.848,41.42 73.367,37.621 64,37.621 C54.638,37.621 46.152,41.42 40.023,47.549 C33.895,53.678 30.094,62.163 30.094,71.525 C30.094,80.892 33.895,89.373 40.023,95.502 L40.023,95.507 C46.147,101.636 54.633,105.43 64,105.43 C73.37,105.43 81.851,101.636 87.977,95.507 L87.981,95.502 C94.11,89.378 97.904,80.897 97.904,71.525 C97.904,62.158 94.11,53.673 87.981,47.549 z" fill="#EBEDED"/>
    <path d="M68.864,38.963 C73.783,38.963 78.505,39.79 82.911,41.311 C91.036,46.408 96.963,54.693 98.932,64.411 C92.602,59.834 84.825,57.13 76.417,57.13 C65.803,57.13 56.181,61.442 49.226,68.397 C42.271,75.354 37.96,84.975 37.96,95.589 L37.96,95.863 C31.998,89.493 28.354,80.938 28.354,71.526 C28.354,69.823 28.473,68.145 28.707,66.512 C30.89,60.854 34.233,55.77 38.438,51.564 C46.221,43.782 56.985,38.963 68.864,38.963 z M87.803,48.508 C82.212,45.339 75.747,43.531 68.864,43.531 C58.25,43.531 48.627,47.842 41.672,54.797 C35.072,61.396 30.853,70.398 30.437,80.372 C32.127,71.869 36.319,64.259 42.216,58.364 C49.998,50.581 60.762,45.764 72.64,45.764 C77.975,45.764 83.09,46.737 87.803,48.508 z M91.579,55.308 C85.99,52.139 79.523,50.33 72.64,50.33 C62.026,50.33 52.405,54.641 45.448,61.598 C38.849,68.197 34.629,77.198 34.214,87.173 C35.904,78.668 40.096,71.06 45.993,65.163 C53.774,57.382 64.538,52.564 76.417,52.564 C81.751,52.564 86.867,53.536 91.579,55.308" fill="#EBEDED"/>
    <path d="M86.518,56.55 L86.825,56.852 C92.881,62.908 97.142,70.771 98.736,79.559 C97.924,83.098 96.575,86.432 94.795,89.478 C94.835,88.748 94.858,88.017 94.858,87.277 C94.858,76.663 90.548,67.04 83.591,60.085 C82.043,58.537 80.362,57.122 78.572,55.856 z M73.736,55.432 C75.996,56.966 78.102,58.706 80.026,60.63 C87.807,68.411 92.625,79.175 92.625,91.054 L92.589,92.821 C91.049,94.885 89.291,96.781 87.347,98.466 C87.812,96.068 88.059,93.588 88.059,91.054 C88.059,80.44 83.747,70.818 76.792,63.863 C73.868,60.939 70.475,58.492 66.74,56.624 L70.229,55.126 z M64.411,57.62 C67.635,59.497 70.604,61.785 73.225,64.406 C81.007,72.188 85.826,82.951 85.826,94.83 C85.826,96.557 85.729,98.26 85.528,99.936 C83.902,101.165 82.167,102.266 80.34,103.211 C80.942,100.516 81.258,97.708 81.258,94.83 C81.258,84.218 76.947,74.595 69.992,67.64 C66.826,64.474 63.109,61.857 58.994,59.943 z" fill="#EBEDED"/>
    <path d="M46.043,45.508 C49.363,44.686 52.829,44.253 56.4,44.253 C57.784,44.253 59.146,44.315 60.497,44.444 C53.236,46.055 46.747,49.722 41.672,54.797 C41.134,55.335 40.613,55.893 40.101,56.468 C37.831,56.628 35.615,56.976 33.474,57.51 C34.95,55.377 36.611,53.391 38.438,51.564 C40.731,49.271 43.28,47.238 46.043,45.508 z M68.461,45.965 C72.376,47.106 76.061,48.786 79.426,50.924 C77.221,50.531 74.956,50.33 72.64,50.33 C71.078,50.33 69.534,50.422 68.023,50.605 C64.849,49.595 61.488,48.997 58.016,48.851 C60.555,49.358 63.027,50.083 65.384,51.016 C62.653,51.536 60.022,52.348 57.528,53.418 C55.477,52.988 53.373,52.719 51.217,52.627 C52.953,52.97 54.646,53.423 56.301,53.966 C54.341,54.884 52.477,55.97 50.72,57.19 C48.641,56.752 46.495,56.487 44.312,56.4 C50.897,50.641 59.255,46.855 68.461,45.965 z M82.373,52.975 C83.944,54.167 85.433,55.46 86.825,56.852 C87.596,57.623 88.341,58.427 89.054,59.259 C86.346,58.313 83.501,57.67 80.554,57.354 C78.299,55.532 75.832,53.966 73.203,52.682 C74.261,52.605 75.334,52.564 76.417,52.564 C78.436,52.564 80.427,52.706 82.373,52.975 z M76.075,57.135 C73.659,57.158 71.294,57.401 69.006,57.847 C66.973,56.655 64.817,55.642 62.571,54.838 C64.904,54.048 67.329,53.45 69.823,53.065 C72.028,54.24 74.119,55.609 76.075,57.135 z M65.969,58.569 C64.045,59.114 62.178,59.803 60.388,60.625 C58.633,59.721 56.798,58.948 54.902,58.318 C56.692,57.287 58.561,56.378 60.501,55.606 C62.402,56.468 64.229,57.456 65.969,58.569" fill="#EBEDED"/>
    <path d="M52.121,64.113 C53.587,63.826 55.066,63.615 56.555,63.483 C61.068,63.082 65.643,63.383 70.106,64.416 L76.581,71.443 C70.365,68.558 63.584,67.448 56.963,68.041 C52.134,68.476 47.385,69.813 42.991,72.041 z M37.42,88.798 L39.023,82.737 C43.65,80.546 48.604,79.217 53.632,78.764 C63.575,77.873 73.837,80.427 82.463,86.593 L83.14,92.973 L82.135,92.104 C73.987,85.299 63.84,82.441 54.043,83.317 C48.226,83.842 42.521,85.682 37.42,88.798 z M39.548,80.756 L41.129,74.804 C45.567,72.79 50.294,71.553 55.094,71.124 C63.054,70.411 71.219,71.904 78.587,75.695 L81.263,82.665 C73.559,77.156 64.388,74.883 55.501,75.677 C49.938,76.18 44.477,77.883 39.548,80.756" fill="#EBEDED"/>
    <path d="M29.364,79.979 C33.068,78.938 36.977,78.381 41.014,78.381 C52.893,78.381 63.657,83.198 71.438,90.981 C74.997,94.539 77.933,98.718 80.076,103.343 C78.719,104.028 77.321,104.631 75.874,105.143 C73.965,101.056 71.353,97.361 68.207,94.215 C61.606,87.616 52.605,83.395 42.63,82.979 C51.135,84.669 58.743,88.861 64.64,94.758 C67.928,98.046 70.686,101.864 72.777,106.079 C71.247,106.467 69.671,106.756 68.073,106.938 C66.288,103.635 64.035,100.622 61.406,97.991 C54.807,91.392 45.806,87.173 35.831,86.757 C44.335,88.445 51.942,92.639 57.839,98.534 C60.41,101.106 62.661,104.006 64.516,107.162 L64,107.17 C62.25,107.17 60.528,107.038 58.848,106.796 C57.578,104.996 56.159,103.321 54.606,101.768 C49.171,96.333 42.107,92.515 34.209,91.104 C32.003,87.748 30.341,83.997 29.364,79.979" fill="#EBEDED"/>
    <path d="M25.852,21.683 C30.383,32.1 38.366,31.328 45.654,28.158 C49.171,26.624 52.605,24.528 55.469,22.783 L55.477,22.783 L56.99,21.865 L56.99,21.855 C62.606,18.472 69.507,16.6 76.193,17.312 C79.815,17.695 83.396,18.845 86.683,20.911 C89.949,22.965 92.926,25.939 95.352,29.962 C100.608,38.685 103.371,52.518 101.183,73.119 L97.73,72.755 C99.831,52.998 97.279,39.89 92.373,31.752 C90.242,28.212 87.651,25.614 84.838,23.843 C82.03,22.079 78.956,21.098 75.829,20.764 C69.927,20.139 63.794,21.81 58.78,24.834 L58.775,24.829 L57.272,25.738 L57.277,25.743 C54.317,27.545 50.778,29.706 47.043,31.336 C38.124,35.214 28.341,36.096 22.673,23.07 z" fill="#EBEDED"/>
  </g>
  <defs/>
</svg>
